<svg width="13" height="13" viewBox="0 0 13 13" fill="none" xmlns="http://www.w3.org/2000/svg">
<mask id="mask0_1_385" style="mask-type:alpha" maskUnits="userSpaceOnUse" x="0" y="-1" width="13" height="14">
<path fill-rule="evenodd" clip-rule="evenodd" d="M0 -0.000976562H12.3357V12.329H0V-0.000976562Z" fill="white"/>
</mask>
<g mask="url(#mask0_1_385)">
<path fill-rule="evenodd" clip-rule="evenodd" d="M10.192 2.88269C10.191 3.29369 9.86296 3.61969 9.45096 3.61969C9.03896 3.61969 8.71396 3.29569 8.71096 2.88269C8.70796 2.46669 9.04096 2.13569 9.45896 2.13869C9.86796 2.14069 10.193 2.47169 10.192 2.88269ZM6.148 8.20819C5.033 8.20619 4.125 7.28419 4.125 6.15519C4.126 5.02719 5.041 4.11719 6.178 4.11719C7.306 4.11819 8.216 5.03419 8.216 6.17019C8.216 7.30419 7.297 8.21019 6.148 8.20819ZM6.16981 3.00098C4.42181 2.99998 3.00681 4.41598 3.00781 6.16698C3.00781 7.90898 4.41981 9.32298 6.16281 9.32598C7.91281 9.32998 9.33181 7.91598 9.33281 6.16698C9.33381 4.41598 7.91981 3.00198 6.16981 3.00098ZM11.0985 9.25692C10.9335 10.3339 10.2185 11.0009 9.13548 11.1199C8.14048 11.2289 3.69648 11.2889 2.77448 11.0299C1.89148 10.7839 1.38648 10.1769 1.23948 9.28792C1.09948 8.43992 1.06548 4.19792 1.23748 3.06392C1.40048 1.99492 2.11548 1.32892 3.19248 1.20792C4.28548 1.08592 8.21748 1.07192 9.26448 1.23292C10.3395 1.39792 11.0055 2.11392 11.1235 3.19892C11.2345 4.21192 11.2655 8.16892 11.0985 9.25692ZM12.2358 3.09263C12.1518 2.28063 11.8408 1.56263 11.2378 0.986634C10.6038 0.381634 9.82676 0.113634 8.97576 0.0686345C7.52676 -0.0103655 4.08376 -0.0603655 2.87476 0.136634C1.49376 0.361634 0.588757 1.16863 0.206757 2.53263C-0.0872428 3.58163 -0.0292428 8.41963 0.142757 9.45663C0.376757 10.8756 1.21476 11.7846 2.62076 12.1476C3.59376 12.3986 8.37576 12.3656 9.44876 12.1926C10.8678 11.9626 11.7818 11.1286 12.1508 9.72563C12.4328 8.64863 12.3338 4.06463 12.2358 3.09263Z" fill="white"/>
</g>
</svg>
